<svg xmlns="http://www.w3.org/2000/svg" xmlns:xlink="http://www.w3.org/1999/xlink" xmlns:serif="http://www.serif.com/" width="100%" height="100%" viewBox="0 0 13979 5109" xml:space="preserve" style="fill-rule:evenodd;clip-rule:evenodd;stroke-linejoin:round;stroke-miterlimit:2;">    <g transform="matrix(1,0,0,1,-95.2026,-75.2246)">        <g id="Layer-1" serif:id="Layer 1" transform="matrix(4.16667,0,0,4.16667,0,0)">            <g transform="matrix(1,0,0,1,23.0392,1150.19)">                <path d="M0,-709.92C-0.371,-733.022 -0.086,-744.471 -0.086,-761.063C-0.086,-778.84 9.244,-790.388 27.904,-795.72C46.564,-801.052 90.665,-803.722 174.804,-803.722C211.521,-803.722 236.999,-800.745 251.222,-794.83C265.446,-788.903 276.242,-778.532 283.661,-763.733C291.054,-748.914 484.36,-63.484 490,-63.484C495.613,-63.484 524.65,-153.086 577.083,-332.296C629.516,-511.493 675.486,-632.212 683.194,-694.42L609.085,-694.63C608.683,-717.741 608.631,-729.076 608.631,-746.846C608.631,-764.616 612.034,-777.06 618.851,-784.172C625.655,-791.277 636.765,-794.83 652.166,-794.83L896.907,-794.83C897.113,-782.618 896.907,-755.77 896.907,-736.816C896.907,-718.444 892.688,-710.704 884.994,-704.195C877.287,-697.665 863.966,-694.42 845.005,-694.42L827.184,-694.42C805.253,-634.574 763.392,-501.876 694.38,-296.305C625.354,-90.728 580.642,25.686 560.203,52.93C539.763,80.167 507.914,93.802 464.667,93.802C394.163,93.802 356.398,90.544 351.374,84.027C346.323,77.504 311.385,-27.342 246.508,-230.551C181.644,-433.74 142.1,-554.152 127.876,-591.778C113.652,-629.392 100.8,-655.655 92.336,-672.201C76.135,-703.871 46.805,-709.92 0,-709.92" style="fill:white;fill-rule:nonzero;"></path>            </g>            <g transform="matrix(1,0,0,1,1322.55,441.205)">                <path d="M0,692.495L111.97,692.495L111.97,743.244C111.97,759.241 108.712,770.212 102.196,776.127C95.667,782.055 82.935,785.012 63.986,785.012L-295.912,785.012L-295.912,731.696C-295.912,718.669 -292.798,709.032 -286.582,702.81C-280.367,696.595 -269.559,693.48 -254.145,693.48L-194.796,693.48L-194.796,32.528C-194.796,13.703 -203.08,4.788 -216.989,0.639C-230.925,-3.502 -295.912,-3.055 -295.912,-3.055L-295.912,-42.309C-295.912,-66.595 -284.358,-81.408 -261.262,-86.74C-238.154,-92.072 -194.265,-90.869 -127.908,-90.869C-81.115,-90.869 -48.587,-92.517 -31.995,-88.075C-15.415,-83.632 -5.928,-75.329 -3.547,-63.193C-1.191,-51.043 0,-10.441 0,19.171L0,692.495Z" style="fill:white;fill-rule:nonzero;"></path>            </g>            <g transform="matrix(1,0,0,1,2035.11,746.016)">                <path d="M0,93.978C-43.302,91.871 -100.406,95.421 -154.907,95.421C-222.44,95.421 -269.691,106.681 -296.647,129.188C-323.616,151.714 -337.081,187.254 -337.081,235.827C-337.081,283.228 -325.082,318.912 -301.083,342.911C-277.098,366.903 -239.922,378.895 -189.57,378.895C-150.471,378.895 -114.028,371.208 -80.268,355.793C-46.495,340.392 -24.145,318.912 -13.166,291.367C-2.214,263.816 3.269,220.425 3.269,161.181L0,93.978ZM120.566,489.087C99.83,489.496 83.979,486.561 73.027,481.537C62.061,476.505 44.736,452.363 21.039,409.109C-28.725,438.146 -79.823,460.208 -132.243,475.315C-184.676,490.422 -236.075,497.972 -286.427,497.972C-366.405,497.972 -425.943,479.175 -465.042,441.548C-504.141,403.934 -523.691,348.099 -523.691,274.036C-523.691,183.4 -491.409,114.081 -426.833,66.097C-362.27,18.113 -262.429,-5.886 -127.362,-5.886L3.269,-5.886C-0.29,-110.143 12.026,-200.661 -13.229,-228.321C-46.028,-264.244 -114.63,-284.918 -181.562,-284.918C-217.114,-284.918 -251.189,-281.358 -283.758,-274.253C-300.952,-239.884 -311.172,-221.519 -314.417,-219.157C-317.675,-216.782 -334.712,-211.6 -365.515,-203.605C-396.331,-195.61 -417.804,-197.076 -429.948,-208.048C-442.091,-219 -454.535,-238.995 -467.267,-268.031C-480.012,-297.048 -486.371,-320.457 -486.371,-338.234C-486.371,-350.076 -481.478,-359.255 -471.703,-365.778C-461.928,-372.295 -422.096,-380.29 -352.181,-389.777C-282.292,-399.244 -207.928,-403.994 -129.142,-403.994C-24.276,-403.994 53.176,-385.917 103.241,-349.788C153.292,-313.64 178.325,-247.284 178.325,-150.734L178.325,124.043C178.325,271.638 174.051,324.957 185.016,352.796C195.969,380.648 247.156,384.115 272.603,387.731L272.603,432.277C272.603,483.854 156.692,488.374 120.566,489.087" style="fill:white;fill-rule:nonzero;"></path>            </g>            <g transform="matrix(1,0,0,1,2671.95,102.979)">                <path d="M0,1132.12C-71.747,1132.12 -133.299,1117.58 -169.779,1083.8C-206.968,1049.37 -237.055,1007.62 -236.473,890.75L-236.473,357.236L-340.337,357.236L-340.337,295.029C-340.337,280.229 -337.092,269.414 -330.562,262.596C-324.059,255.792 -313.093,252.377 -297.692,252.377L-237.263,252.377L-165.281,0C-140.393,7.707 -119.221,16.886 -101.739,27.551C-84.27,38.216 -71.394,50.804 -63.084,65.315C-54.802,79.84 -50.64,130.048 -50.64,215.941L-50.64,252.377L193.422,252.377L193.422,314.578C193.422,331.766 190.164,343.169 183.648,348.79C177.118,354.429 164.098,357.236 144.549,357.236L-50.64,357.236L-50.64,777.557C-50.64,877.686 -48.858,943.323 -30.967,975.283C-16.202,1001.66 12.223,1022.15 70.48,1022.15L152.442,1022.15L152.442,1068.28C152.442,1119.98 66.061,1132.12 0,1132.12" style="fill:white;fill-rule:nonzero;"></path>            </g>            <g transform="matrix(0,1,1,0,1208.38,18.0539)">                <path d="M120.119,-120.119C186.459,-120.119 240.238,-66.34 240.238,0C240.238,66.34 186.459,120.119 120.119,120.119C53.779,120.119 0,66.34 0,0C0,-66.34 53.779,-120.119 120.119,-120.119" style="fill:white;fill-rule:nonzero;"></path>            </g>            <g transform="matrix(1,0,0,1,3265.75,441.205)">                <path d="M0,692.495L111.97,692.495L111.97,743.244C111.97,759.241 108.712,770.212 102.196,776.127C95.667,782.055 82.935,785.012 63.986,785.012L-295.912,785.012L-295.912,731.696C-295.912,718.669 -292.798,709.032 -286.582,702.81C-280.367,696.595 -269.559,693.48 -254.145,693.48L-194.796,693.48L-194.796,32.528C-194.796,13.703 -203.08,4.788 -216.989,0.639C-230.925,-3.502 -295.912,-3.055 -295.912,-3.055L-295.912,-42.309C-295.912,-66.595 -284.358,-81.408 -261.262,-86.74C-238.154,-92.072 -194.265,-90.869 -127.907,-90.869C-81.115,-90.869 -48.587,-92.517 -31.995,-88.075C-15.415,-83.632 -5.928,-75.329 -3.547,-63.193C-1.191,-51.043 0,-10.441 0,19.171L0,692.495Z" style="fill:white;fill-rule:nonzero;"></path>            </g>            <g transform="matrix(0,1,1,0,3151.58,18.0539)">                <path d="M120.119,-120.119C186.459,-120.119 240.238,-66.34 240.238,0C240.238,66.34 186.459,120.119 120.119,120.119C53.779,120.119 0,66.34 0,0C0,-66.34 53.779,-120.119 120.119,-120.119" style="fill:white;fill-rule:nonzero;"></path>            </g>        </g>    </g></svg>